<svg width="60" height="60" viewBox="0 0 60 60" fill="none" xmlns="http://www.w3.org/2000/svg">
<rect width="60" height="60" rx="5" fill="black"/>
<path d="M25.578 40C25.2313 40 24.9107 39.922 24.616 39.766C24.3387 39.61 24.2 39.3847 24.2 39.09V23.516H20.17C19.8927 23.516 19.676 23.386 19.52 23.126C19.364 22.866 19.286 22.5713 19.286 22.242C19.286 21.93 19.3553 21.644 19.494 21.384C19.6327 21.124 19.858 20.994 20.17 20.994H30.96C31.2893 20.994 31.5233 21.124 31.662 21.384C31.8007 21.644 31.87 21.9213 31.87 22.216C31.87 22.5627 31.792 22.866 31.636 23.126C31.4973 23.386 31.272 23.516 30.96 23.516H26.956V39.09C26.956 39.3847 26.8087 39.61 26.514 39.766C26.2367 39.922 25.9247 40 25.578 40ZM36.0779 40C35.7312 40 35.4106 39.922 35.1159 39.766C34.8386 39.61 34.6999 39.3847 34.6999 39.09V24.634L33.7899 25.778C33.6859 25.8647 33.5819 25.934 33.4779 25.986C33.3912 26.0207 33.3046 26.038 33.2179 26.038C32.9406 26.038 32.7152 25.9253 32.5419 25.7C32.3686 25.4573 32.2819 25.1973 32.2819 24.92C32.2819 24.712 32.3339 24.5127 32.4379 24.322C32.5419 24.1313 32.6719 23.9753 32.8279 23.854L35.5319 21.254C35.6186 21.1673 35.7139 21.098 35.8179 21.046C35.9392 20.994 36.0779 20.968 36.2339 20.968C36.5286 20.968 36.8059 21.046 37.0659 21.202C37.3259 21.358 37.4559 21.5833 37.4559 21.878V39.09C37.4559 39.3847 37.3086 39.61 37.0139 39.766C36.7366 39.922 36.4246 40 36.0779 40Z" fill="white"/>
<circle cx="40" cy="40" r="7" fill="#D9D9D9"/>
<rect x="3" y="29" width="46" height="4" rx="2" fill="#D9D9D9"/>
</svg>
