<svg width="60" height="60" viewBox="0 0 60 60" fill="none" xmlns="http://www.w3.org/2000/svg">
<rect width="60" height="60" rx="5" fill="black"/>
<path d="M25.578 40C25.2313 40 24.9107 39.922 24.616 39.766C24.3387 39.61 24.2 39.3847 24.2 39.09V23.516H20.17C19.8927 23.516 19.676 23.386 19.52 23.126C19.364 22.866 19.286 22.5713 19.286 22.242C19.286 21.93 19.3553 21.644 19.494 21.384C19.6327 21.124 19.858 20.994 20.17 20.994H30.96C31.2893 20.994 31.5233 21.124 31.662 21.384C31.8007 21.644 31.87 21.9213 31.87 22.216C31.87 22.5627 31.792 22.866 31.636 23.126C31.4973 23.386 31.272 23.516 30.96 23.516H26.956V39.09C26.956 39.3847 26.8087 39.61 26.514 39.766C26.2367 39.922 25.9247 40 25.578 40ZM33.9743 40C33.7317 40 33.463 39.922 33.1683 39.766C32.891 39.5927 32.7523 39.3673 32.7523 39.09V36.568C32.7523 35.8573 32.9517 35.2073 33.3503 34.618C33.7663 34.0113 34.295 33.4393 34.9363 32.902C35.595 32.3647 36.2883 31.8447 37.0163 31.342C37.7443 30.822 38.429 30.302 39.0703 29.782C39.7117 29.2447 40.2403 28.69 40.6563 28.118C41.0723 27.546 41.2803 26.922 41.2803 26.246C41.2803 25.8127 41.1763 25.388 40.9683 24.972C40.7777 24.556 40.4743 24.2093 40.0583 23.932C39.6423 23.6547 39.105 23.516 38.4463 23.516C37.7183 23.516 37.0943 23.724 36.5743 24.14C36.0717 24.556 35.8203 25.206 35.8203 26.09C35.8203 26.35 35.6903 26.5927 35.4303 26.818C35.1877 27.026 34.841 27.13 34.3903 27.13C34.009 27.13 33.7057 27.026 33.4803 26.818C33.255 26.5927 33.1423 26.1853 33.1423 25.596C33.1423 24.66 33.385 23.854 33.8703 23.178C34.3557 22.4847 35.0057 21.9473 35.8203 21.566C36.635 21.1847 37.5103 20.994 38.4463 20.994C39.4517 20.994 40.379 21.2107 41.2283 21.644C42.0777 22.0773 42.7537 22.684 43.2563 23.464C43.7763 24.2267 44.0363 25.128 44.0363 26.168C44.0363 27.0867 43.8283 27.9187 43.4123 28.664C43.0137 29.4093 42.4937 30.0853 41.8523 30.692C41.211 31.2987 40.5263 31.8533 39.7983 32.356C39.0877 32.8587 38.4117 33.3353 37.7703 33.786C37.1463 34.2367 36.6263 34.6873 36.2103 35.138C35.8117 35.5887 35.6123 36.0653 35.6123 36.568V37.556H43.2303C43.473 37.556 43.681 37.6773 43.8543 37.92C44.045 38.1453 44.1403 38.4227 44.1403 38.752C44.1403 39.0813 44.045 39.376 43.8543 39.636C43.681 39.8787 43.473 40 43.2303 40H33.9743Z" fill="white"/>
<circle cx="47" cy="43" r="7" fill="#D9D9D9"/>
<rect x="3" y="29" width="46" height="4" rx="2" fill="#D9D9D9"/>
</svg>
